<svg xmlns="http://www.w3.org/2000/svg" version="1.1" xmlns:xlink="http://www.w3.org/1999/xlink" xmlns:svgjs="http://svgjs.dev/svgjs" width="1440" height="6000" preserveAspectRatio="none" viewBox="0 0 1440 6000"><g mask="url(&quot;#SvgjsMask1013&quot;)" fill="none"><rect width="1440" height="6000" x="0" y="0" fill="rgba(255, 255, 255, 1)"></rect><path d="M810.87 6263.01C1037.13 5165.86 770.94 2443.97 1176.84 1797.02 1582.74 1150.07 1339.44 2968.94 1542.81 3297.02" stroke="rgba(223, 80, 109, 1)" stroke-width="2"></path><path d="M664.62 6751.64C987.18 5456.89 642.04 2082.29 1191.45 1440.39 1740.86 798.49 1427.01 3084.17 1718.28 3540.39" stroke="rgba(223, 80, 109, 1)" stroke-width="2"></path><path d="M407.35 6307.1C776.95 5350.6 533.61 2467.5 1031.86 2253.21 1530.1 2038.92 1316.98 4049.37 1656.36 4533.21" stroke="rgba(223, 80, 109, 1)" stroke-width="2"></path><path d="M329.19 6260.33C577.56 5721.06 376.6 4165.55 757.15 3924.35 1137.7 3683.15 971.13 4674.35 1185.11 4674.35 1399.09 4674.35 1426.89 4033.62 1613.07 3924.35" stroke="rgba(223, 80, 109, 1)" stroke-width="2"></path><path d="M568.56 7189.76C777.3 6209.88 318.57 4463.23 906.7 3196.6 1494.82 1929.97 1262.01 1953.88 1582.97 1696.6" stroke="rgba(223, 80, 109, 1)" stroke-width="2"></path></g><defs><mask id="SvgjsMask1013"><rect width="1440" height="6000" fill="#ffffff"></rect></mask></defs></svg>