<svg xmlns="http://www.w3.org/2000/svg" version="1.1" xmlns:xlink="http://www.w3.org/1999/xlink" xmlns:svgjs="http://svgjs.dev/svgjs" width="1440" height="6000" preserveAspectRatio="none" viewBox="0 0 1440 6000"><g clip-path="url(&quot;#SvgjsClipPath1006&quot;)" fill="none"><rect width="1440" height="6000" x="0" y="0" fill="rgba(255, 255, 255, 1)"></rect><circle r="240" cx="192.01" cy="126.91" stroke="#e7516f" stroke-opacity="1" stroke-width="2"></circle><circle r="240" cx="943.36" cy="962.42" stroke="#e7516f" stroke-opacity="1" stroke-width="2"></circle><circle r="240" cx="1785.15" cy="1977.08" stroke="#e7516f" stroke-opacity="1" stroke-width="2"></circle><circle r="240" cx="2857.37" cy="2664.44" stroke="#e7516f" stroke-opacity="1" stroke-width="2"></circle><circle r="240" cx="3626.81" cy="3784.68" stroke="#e7516f" stroke-opacity="1" stroke-width="2"></circle><circle r="240" cx="5015.63" cy="4667" stroke="#e7516f" stroke-opacity="1" stroke-width="2"></circle><circle r="290.575" cx="661.29" cy="931.15" stroke="#e7516f" stroke-opacity="1" stroke-width="2"></circle><circle r="221.74" cx="1437.38" cy="3763.47" stroke="#e7516f" stroke-opacity="1" stroke-width="2"></circle><circle r="408.98" cx="960.22" cy="4352.14" stroke="#e7516f" stroke-opacity="1" stroke-width="2"></circle><circle r="197.425" cx="141.15" cy="5372.92" stroke="#e7516f" stroke-opacity="1" stroke-width="2"></circle><circle r="263.48" cx="1091.2" cy="4003.44" stroke="#e7516f" stroke-opacity="1" stroke-width="2"></circle><circle r="210.875" cx="1329.11" cy="3041.46" stroke="#e7516f" stroke-opacity="1" stroke-width="2"></circle><circle r="411.165" cx="812.47" cy="4663.97" stroke="#e7516f" stroke-opacity="1" stroke-width="2"></circle><circle r="361.855" cx="488.92" cy="5078.77" stroke="#e7516f" stroke-opacity="1" stroke-width="2"></circle><circle r="208.385" cx="571.78" cy="441.92" stroke="#e7516f" stroke-opacity="1" stroke-width="2"></circle><circle r="301.925" cx="78.08" cy="3490.64" stroke="#e7516f" stroke-opacity="1" stroke-width="2"></circle><circle r="391.865" cx="26.98" cy="9.22" stroke="#e7516f" stroke-opacity="1" stroke-width="2"></circle><circle r="288.31" cx="122.63" cy="3374.12" stroke="#e7516f" stroke-opacity="1" stroke-width="2"></circle><circle r="454.96" cx="3.81" cy="4145.41" stroke="#e7516f" stroke-opacity="1" stroke-width="2"></circle><circle r="186.115" cx="870.53" cy="602.48" stroke="#e7516f" stroke-opacity="1" stroke-width="2"></circle><circle r="396.815" cx="1146.26" cy="1498.98" stroke="#e7516f" stroke-opacity="1" stroke-width="2"></circle><circle r="330.51" cx="423.05" cy="5593.24" stroke="#e7516f" stroke-opacity="1" stroke-width="2"></circle><circle r="264.54" cx="45.16" cy="1989.44" stroke="#e7516f" stroke-opacity="1" stroke-width="2"></circle><circle r="310.805" cx="593.14" cy="4570.72" stroke="#e7516f" stroke-opacity="1" stroke-width="2"></circle><circle r="339.83" cx="573.71" cy="1958.28" stroke="#e7516f" stroke-opacity="1" stroke-width="2"></circle><circle r="155.475" cx="725.87" cy="686.81" stroke="#e7516f" stroke-opacity="1" stroke-width="2"></circle><circle r="394.82" cx="170.19" cy="174.87" stroke="#e7516f" stroke-opacity="1" stroke-width="2"></circle><circle r="452.845" cx="1297.4" cy="1840.13" stroke="#e7516f" stroke-opacity="1" stroke-width="2"></circle><circle r="403.095" cx="911.33" cy="3883.6" stroke="#e7516f" stroke-opacity="1" stroke-width="2"></circle><circle r="259.17" cx="167.21" cy="1895.61" stroke="#e7516f" stroke-opacity="1" stroke-width="2"></circle><circle r="200.945" cx="261.01" cy="2208.32" stroke="#e7516f" stroke-opacity="1" stroke-width="2"></circle><circle r="441.69" cx="191.01" cy="1988.98" stroke="#e7516f" stroke-opacity="1" stroke-width="2"></circle><circle r="378.135" cx="1224.64" cy="4077.4" stroke="#e7516f" stroke-opacity="1" stroke-width="2"></circle><circle r="163.425" cx="198.02" cy="1569.62" stroke="#e7516f" stroke-opacity="1" stroke-width="2"></circle><circle r="282.47" cx="365.8" cy="5464.03" stroke="#e7516f" stroke-opacity="1" stroke-width="2"></circle><circle r="444.645" cx="175.84" cy="2667.46" stroke="#e7516f" stroke-opacity="1" stroke-width="2"></circle><circle r="380.485" cx="762.71" cy="5779.63" stroke="#e7516f" stroke-opacity="1" stroke-width="2"></circle><circle r="230.77" cx="261.6" cy="720.2" stroke="#e7516f" stroke-opacity="1" stroke-width="2"></circle><circle r="235.15" cx="82.84" cy="2394.42" stroke="#e7516f" stroke-opacity="1" stroke-width="2"></circle><circle r="213.595" cx="83.59" cy="2197.56" stroke="#e7516f" stroke-opacity="1" stroke-width="2"></circle></g><defs><clipPath id="SvgjsClipPath1006"><rect width="1440" height="6000" x="0" y="0"></rect></clipPath></defs></svg>