<svg xmlns="http://www.w3.org/2000/svg" version="1.1" xmlns:xlink="http://www.w3.org/1999/xlink" xmlns:svgjs="http://svgjs.dev/svgjs" width="2500" height="6000" preserveAspectRatio="none" viewBox="0 0 2500 6000"><g clip-path="url(&quot;#SvgjsClipPath1010&quot;)" fill="none"><rect width="2500" height="6000" x="0" y="0" fill="rgba(255, 255, 255, 1)"></rect><circle r="416.665" cx="135.6" cy="385.35" stroke="#e7516f" stroke-opacity="1" stroke-width="2"></circle><circle r="416.665" cx="1523.32" cy="1461.28" stroke="#e7516f" stroke-opacity="1" stroke-width="2"></circle><circle r="416.665" cx="3361.64" cy="3433.29" stroke="#e7516f" stroke-opacity="1" stroke-width="2"></circle><circle r="538.025" cx="1657.71" cy="3211.89" stroke="#e7516f" stroke-opacity="1" stroke-width="2"></circle><circle r="451.21" cx="2281.77" cy="3170.16" stroke="#e7516f" stroke-opacity="1" stroke-width="2"></circle><circle r="227.015" cx="1212.56" cy="2594.37" stroke="#e7516f" stroke-opacity="1" stroke-width="2"></circle><circle r="346.335" cx="1449.75" cy="505.15" stroke="#e7516f" stroke-opacity="1" stroke-width="2"></circle><circle r="391.08" cx="408.58" cy="3609.95" stroke="#e7516f" stroke-opacity="1" stroke-width="2"></circle><circle r="300.65" cx="686.03" cy="1034.8" stroke="#e7516f" stroke-opacity="1" stroke-width="2"></circle><circle r="715.84" cx="193.96" cy="5029.57" stroke="#e7516f" stroke-opacity="1" stroke-width="2"></circle><circle r="662.57" cx="987.24" cy="3794.98" stroke="#e7516f" stroke-opacity="1" stroke-width="2"></circle><circle r="379.75" cx="2066.49" cy="2297.03" stroke="#e7516f" stroke-opacity="1" stroke-width="2"></circle><circle r="591.545" cx="2468.01" cy="3508.66" stroke="#e7516f" stroke-opacity="1" stroke-width="2"></circle><circle r="265.94" cx="1269.06" cy="4035.31" stroke="#e7516f" stroke-opacity="1" stroke-width="2"></circle><circle r="211.31" cx="384.27" cy="4762.09" stroke="#e7516f" stroke-opacity="1" stroke-width="2"></circle><circle r="338.21" cx="1733.61" cy="1540.24" stroke="#e7516f" stroke-opacity="1" stroke-width="2"></circle><circle r="326.995" cx="1108.14" cy="4753.23" stroke="#e7516f" stroke-opacity="1" stroke-width="2"></circle><circle r="445.77" cx="729.34" cy="1254.63" stroke="#e7516f" stroke-opacity="1" stroke-width="2"></circle><circle r="695.295" cx="2275.21" cy="5967.24" stroke="#e7516f" stroke-opacity="1" stroke-width="2"></circle><circle r="825.075" cx="2054.02" cy="2923.84" stroke="#e7516f" stroke-opacity="1" stroke-width="2"></circle><circle r="262.645" cx="293.52" cy="1052.05" stroke="#e7516f" stroke-opacity="1" stroke-width="2"></circle><circle r="269.495" cx="1345.15" cy="845.09" stroke="#e7516f" stroke-opacity="1" stroke-width="2"></circle><circle r="660.3" cx="190.15" cy="1779.45" stroke="#e7516f" stroke-opacity="1" stroke-width="2"></circle><circle r="412" cx="1647.52" cy="1928.34" stroke="#e7516f" stroke-opacity="1" stroke-width="2"></circle><circle r="551.905" cx="1506.26" cy="2172" stroke="#e7516f" stroke-opacity="1" stroke-width="2"></circle><circle r="296.98" cx="2496.26" cy="1541.68" stroke="#e7516f" stroke-opacity="1" stroke-width="2"></circle><circle r="503.28" cx="2116.33" cy="281.44" stroke="#e7516f" stroke-opacity="1" stroke-width="2"></circle><circle r="335.33" cx="1401.21" cy="1216.22" stroke="#e7516f" stroke-opacity="1" stroke-width="2"></circle><circle r="759.32" cx="1313.32" cy="124.09" stroke="#e7516f" stroke-opacity="1" stroke-width="2"></circle><circle r="629.335" cx="2475.15" cy="3912.81" stroke="#e7516f" stroke-opacity="1" stroke-width="2"></circle><circle r="747.155" cx="1346.64" cy="4045.63" stroke="#e7516f" stroke-opacity="1" stroke-width="2"></circle><circle r="330.54" cx="48.1" cy="2657.02" stroke="#e7516f" stroke-opacity="1" stroke-width="2"></circle><circle r="375.405" cx="346.43" cy="739.31" stroke="#e7516f" stroke-opacity="1" stroke-width="2"></circle><circle r="647.19" cx="628.01" cy="4226.05" stroke="#e7516f" stroke-opacity="1" stroke-width="2"></circle><circle r="810.41" cx="1421.51" cy="4704.07" stroke="#e7516f" stroke-opacity="1" stroke-width="2"></circle><circle r="621.225" cx="11.75" cy="1705" stroke="#e7516f" stroke-opacity="1" stroke-width="2"></circle><circle r="652.94" cx="612.14" cy="2358.97" stroke="#e7516f" stroke-opacity="1" stroke-width="2"></circle><circle r="664.8" cx="611.02" cy="1884.69" stroke="#e7516f" stroke-opacity="1" stroke-width="2"></circle><circle r="218.45" cx="153.6" cy="88.45" stroke="#e7516f" stroke-opacity="1" stroke-width="2"></circle><circle r="525.56" cx="768.26" cy="3292.69" stroke="#e7516f" stroke-opacity="1" stroke-width="2"></circle></g><defs><clipPath id="SvgjsClipPath1010"><rect width="2500" height="6000" x="0" y="0"></rect></clipPath></defs></svg>