<svg xmlns="http://www.w3.org/2000/svg" version="1.1" xmlns:xlink="http://www.w3.org/1999/xlink" xmlns:svgjs="http://svgjs.dev/svgjs" width="1440" height="4000" preserveAspectRatio="none" viewBox="0 0 1440 4000"><g mask="url(&quot;#SvgjsMask1551&quot;)" fill="none"><rect width="1440" height="4000" x="0" y="0" fill="rgba(255, 255, 255, 1)"></rect><path d="M231 2218L230 3438" stroke-width="10" stroke="url(&quot;#SvgjsLinearGradient1552&quot;)" stroke-linecap="round" class="Up"></path><path d="M136 1460L135 16" stroke-width="8" stroke="url(&quot;#SvgjsLinearGradient1553&quot;)" stroke-linecap="round" class="Down"></path><path d="M359 2812L358 5582" stroke-width="8" stroke="url(&quot;#SvgjsLinearGradient1552&quot;)" stroke-linecap="round" class="Up"></path><path d="M790 3530L789 5087" stroke-width="8" stroke="url(&quot;#SvgjsLinearGradient1554&quot;)" stroke-linecap="round" class="Up"></path><path d="M788 634L787 -1551" stroke-width="6" stroke="url(&quot;#SvgjsLinearGradient1555&quot;)" stroke-linecap="round" class="Down"></path><path d="M219 1096L218 -575" stroke-width="10" stroke="url(&quot;#SvgjsLinearGradient1555&quot;)" stroke-linecap="round" class="Down"></path><path d="M967 1946L966 -540" stroke-width="6" stroke="url(&quot;#SvgjsLinearGradient1555&quot;)" stroke-linecap="round" class="Down"></path><path d="M877 1991L876 -511" stroke-width="6" stroke="url(&quot;#SvgjsLinearGradient1552&quot;)" stroke-linecap="round" class="Up"></path><path d="M413 1195L412 2650" stroke-width="8" stroke="url(&quot;#SvgjsLinearGradient1554&quot;)" stroke-linecap="round" class="Up"></path><path d="M132 1325L131 -949" stroke-width="10" stroke="url(&quot;#SvgjsLinearGradient1553&quot;)" stroke-linecap="round" class="Down"></path><path d="M281 3313L280 354" stroke-width="6" stroke="url(&quot;#SvgjsLinearGradient1552&quot;)" stroke-linecap="round" class="Up"></path><path d="M720 3480L719 4500" stroke-width="10" stroke="url(&quot;#SvgjsLinearGradient1554&quot;)" stroke-linecap="round" class="Up"></path><path d="M110 2829L109 5410" stroke-width="6" stroke="url(&quot;#SvgjsLinearGradient1552&quot;)" stroke-linecap="round" class="Up"></path><path d="M159 405L158 1410" stroke-width="6" stroke="url(&quot;#SvgjsLinearGradient1552&quot;)" stroke-linecap="round" class="Up"></path><path d="M285 864L284 -1825" stroke-width="10" stroke="url(&quot;#SvgjsLinearGradient1554&quot;)" stroke-linecap="round" class="Up"></path><path d="M1284 1844L1283 4184" stroke-width="6" stroke="url(&quot;#SvgjsLinearGradient1555&quot;)" stroke-linecap="round" class="Down"></path><path d="M1308 2705L1307 5440" stroke-width="6" stroke="url(&quot;#SvgjsLinearGradient1555&quot;)" stroke-linecap="round" class="Down"></path><path d="M929 3659L928 5881" stroke-width="8" stroke="url(&quot;#SvgjsLinearGradient1555&quot;)" stroke-linecap="round" class="Down"></path><path d="M125 3842L124 1699" stroke-width="8" stroke="url(&quot;#SvgjsLinearGradient1552&quot;)" stroke-linecap="round" class="Up"></path><path d="M402 1491L401 2808" stroke-width="10" stroke="url(&quot;#SvgjsLinearGradient1553&quot;)" stroke-linecap="round" class="Down"></path><path d="M1303 699L1302 3406" stroke-width="10" stroke="url(&quot;#SvgjsLinearGradient1554&quot;)" stroke-linecap="round" class="Up"></path><path d="M1199 165L1198 -1208" stroke-width="8" stroke="url(&quot;#SvgjsLinearGradient1552&quot;)" stroke-linecap="round" class="Up"></path><path d="M1228 2728L1227 5393" stroke-width="10" stroke="url(&quot;#SvgjsLinearGradient1554&quot;)" stroke-linecap="round" class="Up"></path><path d="M367 1429L366 3827" stroke-width="8" stroke="url(&quot;#SvgjsLinearGradient1552&quot;)" stroke-linecap="round" class="Up"></path><path d="M155 1952L154 -553" stroke-width="6" stroke="url(&quot;#SvgjsLinearGradient1555&quot;)" stroke-linecap="round" class="Down"></path><path d="M338 1573L337 -386" stroke-width="6" stroke="url(&quot;#SvgjsLinearGradient1555&quot;)" stroke-linecap="round" class="Down"></path><path d="M995 319L994 2167" stroke-width="6" stroke="url(&quot;#SvgjsLinearGradient1555&quot;)" stroke-linecap="round" class="Down"></path><path d="M1323 2365L1322 -62" stroke-width="6" stroke="url(&quot;#SvgjsLinearGradient1552&quot;)" stroke-linecap="round" class="Up"></path><path d="M1160 2900L1159 5651" stroke-width="8" stroke="url(&quot;#SvgjsLinearGradient1553&quot;)" stroke-linecap="round" class="Down"></path><path d="M471 996L470 3589" stroke-width="6" stroke="url(&quot;#SvgjsLinearGradient1553&quot;)" stroke-linecap="round" class="Down"></path><path d="M1378 348L1377 2731" stroke-width="6" stroke="url(&quot;#SvgjsLinearGradient1552&quot;)" stroke-linecap="round" class="Up"></path><path d="M1257 1643L1256 -40" stroke-width="10" stroke="url(&quot;#SvgjsLinearGradient1552&quot;)" stroke-linecap="round" class="Up"></path><path d="M185 236L184 -1800" stroke-width="6" stroke="url(&quot;#SvgjsLinearGradient1555&quot;)" stroke-linecap="round" class="Down"></path><path d="M117 3349L116 5825" stroke-width="6" stroke="url(&quot;#SvgjsLinearGradient1555&quot;)" stroke-linecap="round" class="Down"></path><path d="M817 2822L816 4217" stroke-width="10" stroke="url(&quot;#SvgjsLinearGradient1553&quot;)" stroke-linecap="round" class="Down"></path><path d="M609 3136L608 909" stroke-width="8" stroke="url(&quot;#SvgjsLinearGradient1552&quot;)" stroke-linecap="round" class="Up"></path></g><defs><mask id="SvgjsMask1551"><rect width="1440" height="4000" fill="#ffffff"></rect></mask><linearGradient x1="0%" y1="100%" x2="0%" y2="0%" id="SvgjsLinearGradient1552"><stop stop-color="rgba(220, 20, 60, 0)" offset="0"></stop><stop stop-color="rgba(220, 20, 60, 1)" offset="1"></stop></linearGradient><linearGradient x1="0%" y1="0%" x2="0%" y2="100%" id="SvgjsLinearGradient1553"><stop stop-color="rgba(224, 122, 142, 0)" offset="0"></stop><stop stop-color="rgba(224, 122, 142, 1)" offset="1"></stop></linearGradient><linearGradient x1="0%" y1="100%" x2="0%" y2="0%" id="SvgjsLinearGradient1554"><stop stop-color="rgba(224, 122, 142, 0)" offset="0"></stop><stop stop-color="rgba(224, 122, 142, 1)" offset="1"></stop></linearGradient><linearGradient x1="0%" y1="0%" x2="0%" y2="100%" id="SvgjsLinearGradient1555"><stop stop-color="rgba(220, 20, 60, 0)" offset="0"></stop><stop stop-color="rgba(220, 20, 60, 1)" offset="1"></stop></linearGradient></defs></svg>