<svg xmlns="http://www.w3.org/2000/svg" version="1.1" xmlns:xlink="http://www.w3.org/1999/xlink" xmlns:svgjs="http://svgjs.dev/svgjs" width="1440" height="6000" preserveAspectRatio="none" viewBox="0 0 1440 6000"><g mask="url(&quot;#SvgjsMask1056&quot;)" fill="none"><rect width="1440" height="6000" x="0" y="0" fill="rgba(246, 212, 224, 1)"></rect><path d="M 0,560 C 96,825.6 288,1914 480,1888 C 672,1862 768,331.4 960,430 C 1152,528.6 1344,1990.8 1440,2381L1440 6000L0 6000z" fill="rgba(255, 255, 255, 1)"></path><path d="M 0,3579 C 41.2,3967.6 123.6,5381.8 206,5522 C 288.4,5662.2 329.6,4260.6 412,4280 C 494.4,4299.4 535.6,5663 618,5619 C 700.4,5575 741.6,4164.6 824,4060 C 906.4,3955.4 947.6,5287.6 1030,5096 C 1112.4,4904.4 1154,2989.2 1236,3102 C 1318,3214.8 1399.2,5148.4 1440,5660L1440 6000L0 6000z" fill="rgba(182, 209, 237, 1)"></path></g><defs><mask id="SvgjsMask1056"><rect width="1440" height="6000" fill="#ffffff"></rect></mask></defs></svg>